<?xml version="1.0" encoding="utf-8"?>
<!-- Generator: Adobe Illustrator 25.0.0, SVG Export Plug-In . SVG Version: 6.00 Build 0)  -->
<svg version="1.1" id="Layer_1" xmlns="http://www.w3.org/2000/svg" xmlns:xlink="http://www.w3.org/1999/xlink" x="0px" y="0px"
	 viewBox="0 0 1034.1 914.5" style="enable-background:new 0 0 1034.1 914.5;" xml:space="preserve">
<style type="text/css">
	.st0{fill:#FFFFFF;}
	.st1{fill:#50C9FF;}
	.st2{fill:#FDFDFE;}
</style>
<g>
	<path class="st1" d="M519.6,658.1c-29.3-46.1-57.1-92.4-81.9-140.4c-15.5-30-31.1-60-39.6-92.9C383.6,368.7,408.8,284,496.4,269
		c39.9-6.8,76.8,1.5,108.1,28.6c22.9,19.9,33.8,46,39.3,75.3c6.8,36-5.1,68-19.5,99.6c-29.1,64-65.2,124.1-102.7,183.4
		C521.2,656.6,520.6,657,519.6,658.1z M476.7,395.6c0.1,25.3,18.7,44,43.8,43.9c23.8-0.1,43.4-19.6,43.4-43.2
		c-0.1-24.5-19.2-43.8-43.4-43.9C495.7,352.4,476.7,371.2,476.7,395.6z"/>
	<path class="st2" d="M476.7,395.6c-0.1-24.4,19-43.2,43.7-43.2c24.2,0,43.3,19.4,43.4,43.9c0.1,23.6-19.5,43.1-43.4,43.2
		C495.5,439.6,476.8,420.9,476.7,395.6z"/>
</g>
</svg>
